<?xml version="1.0" encoding="UTF-8" standalone="no"?><svg id="Layer_1" data-name="Layer 1" xmlns="http://www.w3.org/2000/svg" viewBox="0 0 930.87 168.55"><defs><style>.cls-1{fill:#0066b2;}.cls-2{fill:#828486;}.cls-3{fill:#ec870e;}</style></defs><title>logo</title><path class="cls-1" d="M156,78.29C166.35,60.23,176.4,42,186.89,24.07c.16,20.9.22,41.81,0,62.71-3-6.08-5.51-12.4-8.47-18.5-6.9,25.84-15.3,51.44-27.19,75.46-8,16.84-20.65,32-37.44,40.6-12.47,6.57-26.83,8.88-40.81,8.15-11.28-.27-22.52-1.25-33.72-2.59.25-1.55.49-3.11.73-4.66,11.62,1,23.41,2.55,35,.41,21.74-3.6,41-16.64,54.83-33.45,20.41-24.81,34.2-54.56,42.87-85.35C167.05,70.56,161.67,74.61,156,78.29Z" transform="translate(-26.94 -24.07)"/><path class="cls-1" d="M777.34,52.67c3-1.19,6.93-1.92,9.79-.26.07.56.22,1.68.29,2.24-2.84-.2-5.77-.37-8.43.81a28.37,28.37,0,0,0-.66,8.06q4,0,8,0c.17,1,.36,2,.56,2.94-2.89.15-5.77.1-8.64.16.1,6.88.11,13.75,0,20.63l2.44.76c-.12.86-.23,1.73-.32,2.59-2.7,0-5.39-.1-8.07-.25l.12-2.29,2.31-.78c-.1-6.89-.07-13.79,0-20.68l-5.11-.06c0-.69.13-2.08.18-2.77a26.9,26.9,0,0,1,4.84-.17C774.9,59.92,773.77,55.05,777.34,52.67Z" transform="translate(-26.94 -24.07)"/><path class="cls-1" d="M816.77,52.3c1.88-.17,3.78-.18,5.69-.24.58,7.44-.23,14.92.39,22.34.28,1.71,2.11.36,2.77-.23,3.75-3.28,6.9-7.2,10.72-10.42,1.47-.48,3.08-.08,4.62-.12,0,.6-.08,1.8-.11,2.4-5.54.94-8.12,6.74-12.42,9.8,3.07,3.37,6.2,6.7,9.26,10.1.93,1.26,2.47,1.64,3.88,2.18,0,.55.11,1.66.15,2.21-1.82.09-3.62.11-5.42.08-3.06-4-6.6-7.54-9.73-11.45-.94-.91-2.32-2.88-3.74-1.51a66.94,66.94,0,0,0-.11,9.71c1.67.33,2.32,1.59,2.43,3.17a49.28,49.28,0,0,1-8.59,0c0-.59.08-1.76.11-2.35l2.33-.61c-.07-10.33.09-20.66-.06-31C819.17,54.49,815.47,54.46,816.77,52.3Z" transform="translate(-26.94 -24.07)"/><path class="cls-1" d="M874.76,52.18q3.09,0,6.21,0c0,11.64,0,23.29,0,34.93,1.92.13,2.15,1.69,2.19,3.3-2.82,0-5.62,0-8.42,0,.09-1.56.39-3.08,2.23-3.32,0-10.24.1-20.48,0-30.71C877.07,54.52,874.18,54.38,874.76,52.18Z" transform="translate(-26.94 -24.07)"/><path class="cls-1" d="M887.9,54.33c-1.56-3.44,3.74-1.77,5.56-2.27.47,11.7,0,23.41.23,35.12,1.78.22,2.38,1.52,2.44,3.14a51.09,51.09,0,0,1-8.57,0c0-.56.07-1.69.09-2.25l2.35-.74q0-16,0-31.91C889.48,55.11,888.43,54.59,887.9,54.33Z" transform="translate(-26.94 -24.07)"/><path class="cls-1" d="M739.54,63.75c2-.16,4-.26,6-.34.69,7.24-.69,14.65.8,21.79,2.6,3.6,7.8,2.11,11.52,1.8l1.85,1.44c-3.74,2.57-8.39,2.49-12.68,1.88-3.17-.55-5.06-3.71-5-6.76-.07-5.6,0-11.21,0-16.81l-2.33-.81C739.62,65.4,739.57,64.3,739.54,63.75Z" transform="translate(-26.94 -24.07)"/><path class="cls-1" d="M757.88,63.66c2-.09,4.07-.14,6.12-.17V87.25l2.52.67c-.14.86-.27,1.72-.39,2.57l-5,0c-.32-1.29-.77-2.54-1-3.85.28-6.6.23-13.21.1-19.82C758.53,66.51,757.92,65.25,757.88,63.66Z" transform="translate(-26.94 -24.07)"/><path class="cls-1" d="M791.38,77.08c-3.93-3.59-3-12,2.77-13.13a42.48,42.48,0,0,1,16.12.52c-.18.67-.54,2-.71,2.67-5.06,0-10.53-1.87-15.32.56-2.08,1.18-1,3.94-1.31,5.87,4.9,3.06,11.07.43,16.2,2.71,3.29,1.77,3.2,6,2.72,9.25-.69,3-3.91,4.46-6.73,4.81a51.9,51.9,0,0,1-15.92-.93c.19-.67.58-2,.78-2.67,5.28-.07,10.89,1.92,16.08-.16,2.82-.87,2.78-4.68,1.54-6.82C802.54,77.13,796.28,80.08,791.38,77.08Z" transform="translate(-26.94 -24.07)"/><path class="cls-1" d="M851.3,64a38.5,38.5,0,0,1,10.83-.3c2.87.23,5.88,1.9,6.63,4.87a37.36,37.36,0,0,1-.21,17.56c-1.63,4.2-6.77,4.48-10.58,4.45-4.09,0-9.68.08-11.51-4.43A37.47,37.47,0,0,1,846,69.43,6.57,6.57,0,0,1,851.3,64Zm1.89,2.68a4.45,4.45,0,0,0-3.49,4c-.53,4.8-.88,9.87.53,14.56,2.09,3.29,6.47,2.17,9.75,2.31,2.51.23,5.2-1.51,5.32-4.18.52-4.78.88-9.83-.51-14.49C862.25,65.1,857,66.69,853.19,66.65Z" transform="translate(-26.94 -24.07)"/><path class="cls-1" d="M907.34,64c5.06-.61,11-1.47,15.46,1.67,2.89,3.34,2.12,8,2.25,12.11-6.69.69-14.13,2-20.27-1.43-.15,3.55-.66,8.44,3.25,10.23,4.79,1.79,10,.79,14.92-.14.13.8.38,2.38.51,3.17-5.65,1-11.76,1.82-17.31,0-5.77-2.4-5.6-9.75-5.38-15C900.63,70.19,902.39,64.79,907.34,64Zm0,3.12c-3,1.31-2.43,5.11-2.75,7.78,5.37.92,10.84.62,16.26.49.22-3,.56-7.31-2.93-8.6C914.48,66.36,910.75,66,907.38,67.09Z" transform="translate(-26.94 -24.07)"/><path class="cls-1" d="M931.8,67.37c1-3,4.37-4,7.22-4,6.25-.2,12.52.28,18.78.09.3,3.79-4.38,2.27-6.81,3.1,1.24,2.18,3.5,4.16,3.08,6.91.21,3.11-1.32,6.59-4.58,7.38-4.46,1.15-9.19.71-13.71.15a19.3,19.3,0,0,0-.79,5.44c6.54,1.86,13.64-.7,20,2a13.62,13.62,0,0,1,.75,9.82c-1.11,2.08-3.6,2.83-5.76,3.17a73.32,73.32,0,0,1-17.64-.32L931.92,98c6.63.33,13.56,1.45,20-.62.83-2.17,1.39-5.19-.86-6.72-5.93-.92-12.21.89-17.93-1.17-3.62-2.39-1-6.55,1.31-8.81C930.39,77.62,930.41,71.81,931.8,67.37Zm5.41-.67c-3.18,2.62-2.89,8.09-.66,11.24,3.54,1.47,7.71,1.12,11.42.36,3.7-2.66,1.53-8.12,1.86-12C945.63,66.18,941.33,65.68,937.21,66.7Z" transform="translate(-26.94 -24.07)"/><path class="cls-2" d="M32.45,52.12a33.18,33.18,0,0,1,14.74.13c4.67,1.5,5.05,7.13,5.09,11.25-.12,4.47.54,9.4-1.89,13.41-2.63,3.48-7.51,3-11.4,3.14s-8.6-.08-10.6-3.89c-2-4.25-1.32-9.1-1.39-13.64C27,58.54,27.9,53.24,32.45,52.12Z" transform="translate(-26.94 -24.07)"/><path class="cls-2" d="M435.67,51.67c20.44.17,40.89,0,61.34.07,8.7-.08,18.24,0,25.59,5.29,6.42,4.64,8.75,12.84,9.24,20.4.31,6.46.43,13.17-1.51,19.4-5.34,3.48-11.2,6.08-16.64,9.4a1.94,1.94,0,0,0-.06,3.6c5.94,3.9,12.75,6.54,18.44,10.74,2.7,7.69,2.54,16.12,1.65,24.12-1,7.8-4.77,15.86-12.09,19.51C514.41,168,506,167.93,498.05,168c-20.84,0-41.67,0-62.5,0-.09-2.79-.08-5.59.09-8.38,2.58-.49,5.31-.63,7.71-1.78.82-1.28.58-2.87.68-4.3-.08-29.7,0-59.39,0-89.08.28-4.45-5.64-3.46-8.5-4.6C435.44,57.12,435.48,54.39,435.67,51.67ZM456,62.05c0,14,0,27.92,0,41.88,11.68.15,23.37,0,35,.07,5.92,0,12,.07,17.71-1.72a14.31,14.31,0,0,0,9-8c2.06-5,1.95-10.46,1.66-15.72-.36-4.91-2-10.27-6.34-13.09-5.34-3.36-11.93-3.38-18-3.49C482,62.05,469,61.94,456,62.05Zm0,52c0,14.55,0,29.1,0,43.65,12.34.07,24.68,0,37,0,7.05-.19,14.58.1,21-3.32,5.3-2.9,7.41-9.2,7.68-14.91.33-6.88.32-14.76-4.66-20.16-4.73-4.58-11.77-5.13-18-5.36C484.67,114,470.32,113.92,456,114.07Z" transform="translate(-26.94 -24.07)"/><path class="cls-2" d="M540.09,51.69q42,.14,83.94,0c.29,3.39.26,6.8.25,10.2-21.24.35-42.49,0-63.73.17,0,13.77-.3,27.55.17,41.31,20.68-.15,41.38-.2,62.06,0q-.07,5,0,10c-20.76.19-41.52,0-62.27.08q-.07,22.11,0,44.22c21.18,0,42.37.07,63.55,0a53.26,53.26,0,0,1-.14,10.41c-27.91-.17-55.84-.23-83.75,0a65,65,0,0,1-.16-8.49,39.37,39.37,0,0,0,7.67-1.7c1.09-1.19.92-2.93,1-4.42q0-43.51,0-87c-.14-1.6.17-3.5-1-4.76-2.34-1.28-5.44-.73-7.6-2.14A51.2,51.2,0,0,1,540.09,51.69Z" transform="translate(-26.94 -24.07)"/><path class="cls-2" d="M636.89,51.71c17.36.09,34.72,0,52.09,0,10,.09,20.29-.68,29.83,2.81a20.84,20.84,0,0,1,13.35,15,55.54,55.54,0,0,1,.58,24.07c-1.34,6.64-5.17,13-11.18,16.37-4.9,3.17-10.77,3.93-16.38,5-2,.21-3,2.7-2.17,4.42a41.32,41.32,0,0,0,3.84,6.29c6.34,9.38,12.44,18.9,18.78,28.28,2.75,4.61,8.79,4.19,13.33,5.68.08,2.83,0,5.66-.12,8.49-6.19-.19-12.38-.12-18.56-.05-7.95-11.66-15.69-23.46-23.53-35.19-4.5-5-1.65-12.14-2.66-18.17-12.14.08-24.3.1-36.44,0-.35,12.61,0,25.22-.18,37.83.12,1.81-.34,3.92,1,5.42a47.32,47.32,0,0,0,7.74,1.72c.06,2.73.09,5.45.14,8.18-9.86.31-19.74.23-29.6,0,0-2.74,0-5.47.1-8.2,2.71-.73,6-.5,8.26-2.33.78-2.54.34-5.26.44-7.87,0-27.65,0-55.29,0-82.94-.1-1.59.12-3.31-.7-4.75a47.41,47.41,0,0,0-8.07-1.93C636.71,57.14,636.74,54.42,636.89,51.71ZM657.54,62c0,14.16-.08,28.32,0,42.47,13.47-.05,26.94,0,40.41,0,6-.3,12.63-.54,17.72-4.21,4.55-3.39,5.58-9.47,5.58-14.79,0-6.16.35-13.28-4.23-18.07-5-4.79-12.43-5.06-19-5.37Q677.82,62,657.54,62Z" transform="translate(-26.94 -24.07)"/><path class="cls-3" d="M75.46,57.21a29,29,0,0,1,15.64.13c4.35,1.8,4.68,7.13,4.67,11.17-.13,4.54.61,9.61-2,13.61-2.95,3.23-7.82,2.82-11.81,2.91-3.65-.12-8.49-.37-10.17-4.25-1.81-4.51-1.22-9.52-1.22-14.27C70.64,62.93,71.63,58.51,75.46,57.21Z" transform="translate(-26.94 -24.07)"/><path class="cls-3" d="M119.3,61.08c5.51-1.17,11.88-1.65,17,1.13,3.55,3.32,2.89,8.79,3.13,13.22-.3,4.23.16,10.08-4.35,12.29-4.8,1.81-10.21,1.58-15.18.61a7,7,0,0,1-5.36-5.92,50.88,50.88,0,0,1-.1-15.09C114.77,64.56,116.48,61.82,119.3,61.08Z" transform="translate(-26.94 -24.07)"/><path class="cls-3" d="M33.59,96.24c4.63-.73,9.59-.94,14.08.63,3.86,1.46,4.42,6.09,4.56,9.66,0,4.62.54,9.52-1.33,13.89-1.52,3.35-5.65,3.82-8.87,4-4,.09-8.48.3-12-1.93-2.82-2.44-2.93-6.58-3-10,.09-4.24-.47-8.76,1.38-12.72C29.28,97.72,31.48,96.66,33.59,96.24Z" transform="translate(-26.94 -24.07)"/><path class="cls-3" d="M77.47,96.16c5-.56,10.69-1.14,15.21,1.53,4.06,3.7,2.87,9.86,3.09,14.78.08,4.22-.56,10.19-5.59,11.27-5.32,1.07-11.4,1.53-16.36-1-4.41-3.61-3.08-10.18-3.34-15.21C70.21,102.79,71.8,96.57,77.47,96.16Z" transform="translate(-26.94 -24.07)"/><path class="cls-3" d="M120.47,96.26c5.12-.73,10.83-1.2,15.56,1.3,3.76,3,3.12,8.54,3.4,12.88-.3,4.12.22,9.32-3.33,12.22-4.53,2.5-10,2-15,1.45a7.23,7.23,0,0,1-6.55-6,48.91,48.91,0,0,1,0-15.65A7.16,7.16,0,0,1,120.47,96.26Z" transform="translate(-26.94 -24.07)"/><path class="cls-3" d="M288.46,105.31a80,80,0,0,1,24.61-.32c4.76.59,9.62,3,11.7,7.57,2.37,5.33,2.36,11.31,2.68,17,.09,8,.3,16.12-.94,24.08-.73,4.43-2.64,9.22-6.93,11.3-6.05,2.94-13,2.66-19.59,2.77-6.12-.36-13-.26-18-4.31-5.55-4.92-5.38-13-5.87-19.81-.1-9.44-.6-19.09,1.69-28.33A13.16,13.16,0,0,1,288.46,105.31Zm3,5a9.78,9.78,0,0,0-7.79,8c-1.77,8.62-1.15,17.5-1.12,26.24.4,5.33.27,11.86,5,15.44,5.23,3.12,11.68,2.51,17.54,2.55,5-.22,11.65-.65,13.95-6,2.31-6,1.84-12.62,1.95-18.95-.15-6.9.58-14-1.44-20.71-1.12-4-5.11-6.28-9-6.76A63.56,63.56,0,0,0,291.5,110.26Z" transform="translate(-26.94 -24.07)"/><path class="cls-3" d="M391.93,105.56c10.62-2.09,21.59-.88,32.17.91-.17,1.63-.31,3.26-.47,4.89-9.14-1-18.45-2.56-27.61-1-3.39.47-6.88,2.55-7.72,6.07a20.51,20.51,0,0,0,.19,10.69c.81,2.35,3.3,3.47,5.56,4,8.22,1.41,16.74.46,24.85,2.57a11,11,0,0,1,8,8.69,32.62,32.62,0,0,1-1,17c-1.62,4.54-6.34,6.88-10.83,7.56-10.72,1.78-21.62.2-32.26-1.34a36,36,0,0,1,.66-5.57c9.36,1.61,19,2.89,28.44,1.75,4.11-.37,8.3-3.06,8.78-7.45s1.27-10.66-3-13.66c-5.56-2.4-11.82-1.64-17.72-2.23-5.45-.47-12-.5-15.81-5.09-3.65-5.21-3.25-12.11-2.2-18.08A12.2,12.2,0,0,1,391.93,105.56Z" transform="translate(-26.94 -24.07)"/><path class="cls-3" d="M750.28,109.77c4.07-4.1,10.14-4.85,15.63-5.17a94.48,94.48,0,0,1,28,2.83q-.48,2.56-.92,5.14c-9.55-1.66-19.29-2.93-29-2.1-4,.32-8.44,1.8-10.4,5.6-2.7,5.36-2.61,11.56-2.83,17.42.12,7.32-.44,15,2.34,21.92,1.49,4,5.65,6,9.65,6.43a78.37,78.37,0,0,0,26.78-1.76q0-12.56,0-25.11c2.09,0,4.2.06,6.31.16-.18,10.71,0,21.42-.08,32.12h-5.34c-.25-1.58-.51-3.16-.75-4.74-4.5-.31-7.12,4.63-11.54,4.76-7.24.78-14.76.85-21.82-1.09-5.41-1.41-9.27-6.24-10.38-11.59-2.1-9.56-1.94-19.5-1.21-29.22C745.28,119.87,746.27,113.88,750.28,109.77Z" transform="translate(-26.94 -24.07)"/><path class="cls-3" d="M332.72,105c5.27-.06,10.54,0,15.82,0-.05,1.48-.11,3-.16,4.43l-4.13.56c-.78,3.45-.48,7-.5,10.49q0,20.63,0,41.24c10.27.17,20.56-.24,30.82.2,0,1.72,0,3.43,0,5.14-13.89.47-27.79,0-41.67.27a25.81,25.81,0,0,1-.11-3.93c1.41-.94,3.17-1.16,4.75-1.74-.14-16.4,0-32.8-.08-49.19.71-2.94-2.78-2.65-4.63-3.21C332.79,107.85,332.75,106.44,332.72,105Z" transform="translate(-26.94 -24.07)"/><path class="cls-3" d="M75.5,136.12a29.23,29.23,0,0,1,15.61.17c5.13,2.05,4.57,8.64,4.68,13.16-.13,4.63.54,11.27-4.67,13.46a30.12,30.12,0,0,1-14.19.54,7,7,0,0,1-5.68-5.15c-1.14-4.48-.79-9.17-.65-13.74C70.76,141.22,71.93,137.23,75.5,136.12Z" transform="translate(-26.94 -24.07)"/><path class="cls-3" d="M32.35,140a31.65,31.65,0,0,1,14.77.08c5.21,1.6,5.09,8,5.17,12.42-.17,4.8.75,11.44-4.24,14.17a28,28,0,0,1-15.7.45c-4.2-1-5.25-5.79-5.32-9.53,0-4.34-.46-8.83.8-13.05A6.25,6.25,0,0,1,32.35,140Z" transform="translate(-26.94 -24.07)"/></svg>