<?xml version="1.0" encoding="UTF-8" standalone="no"?>
<svg id="a3181500-454e-4c1a-865b-1237378d5ee9" data-name="Ebene 1" xmlns="http://www.w3.org/2000/svg" xmlns:xlink="http://www.w3.org/1999/xlink" viewBox="0 0 141.73 70.87"><defs><clipPath id="4d4427f1-f6e6-4ea6-858f-4beb665d4bff"><rect x="3.59" y="5.96" width="134.5" height="60.28" fill="none"/></clipPath></defs><title>FHDW_Logo_RGB</title><g clip-path="url(#4d4427f1-f6e6-4ea6-858f-4beb665d4bff)"><path d="M118.83,59.35h-1.08l0.31-1.65-1.2.24-0.28,1.41h-0.77l-0.18.92h0.79L116,62.47c-0.2,1.1.07,1.57,1.06,1.57a4.31,4.31,0,0,0,.94-0.12l0.11-.94a2.51,2.51,0,0,1-.57.07c-0.38,0-.46-0.15-0.35-0.7l0.39-2.07h1.08Zm-2.68-2.16a3.48,3.48,0,0,0-.75-0.07A2,2,0,0,0,113.25,59l-0.07.34h-0.78l-0.19.92H113l-0.73,3.84c-0.18.92-.47,1.16-1,1.16a2.23,2.23,0,0,1-.55-0.07l-0.27,1a3.74,3.74,0,0,0,.79.08c1.15,0,1.89-.65,2.16-2.13l0.73-3.85h1.05l0.18-.92h-1l0.06-.3a0.9,0.9,0,0,1,.92-1,2.3,2.3,0,0,1,.55.07Zm-6.41,3.06-0.06.3c-0.18,1-1,2.48-1.66,2.48-0.23,0-.35-0.18-0.35-0.64,0-1,.49-2.2,1.55-2.2a2.07,2.07,0,0,1,.52.07m1.31-.85a8.53,8.53,0,0,0-1.63-.14c-2,0-3,1.61-3,3.35,0,1,.38,1.43,1.08,1.43a2.52,2.52,0,0,0,1.92-1.56h0a12.54,12.54,0,0,0-.42,1.47,13.09,13.09,0,0,0,1.9-.08l0.14-.74a4.83,4.83,0,0,1-.76-0.09Zm-5.46,3.74a4.72,4.72,0,0,1-.75-0.09l0.44-2.28c0.17-.9-0.09-1.52-1-1.52a2.37,2.37,0,0,0-1.93,1.53h0a9.66,9.66,0,0,0,.5-1.64l0.37-2a13.53,13.53,0,0,0-2,.08L101.1,58c0.27,0,.56.06,0.78,0.09l-1.11,5.84h1.16l0.22-1.16c0.19-1.07,1-2.52,1.65-2.52,0.29,0,.38.23,0.28,0.8L103.53,64a13.18,13.18,0,0,0,1.93-.07Zm-5.2-3.73a4.63,4.63,0,0,0-1.17-.15c-1.5,0-2.65,1.29-2.65,3.16A1.49,1.49,0,0,0,98.34,64a4.34,4.34,0,0,0,1.26-.2l0.09-1a2.72,2.72,0,0,1-1,.2,0.74,0.74,0,0,1-.85-0.83c0-1,.55-1.92,1.29-1.92a1.26,1.26,0,0,1,.31,0c0,0.19,0,.43,0,0.61h0.74Zm-4.46,0a5.23,5.23,0,0,0-1.08-.11c-1.35,0-2.05.71-2.05,1.55,0,1.22,1.65,1.2,1.65,1.83a0.64,0.64,0,0,1-.77.55,1.75,1.75,0,0,1-.34,0c0-.18,0-0.4,0-0.58H92.66L92.4,63.94a6.22,6.22,0,0,0,1,.1c1.39,0,2.19-.79,2.19-1.64,0-1.17-1.66-1.2-1.66-1.82a0.57,0.57,0,0,1,.71-0.51,1.38,1.38,0,0,1,.29,0c0,0.19,0,.38,0,0.58h0.72Zm-3.72,0H91.14l0.31-1.65-1.2.24L90,59.35H89.21L89,60.26h0.79l-0.43,2.2c-0.2,1.1.07,1.57,1.06,1.57a4.3,4.3,0,0,0,.94-0.12L91.5,63a2.52,2.52,0,0,1-.57.07c-0.38,0-.46-0.15-0.35-0.7L91,60.26H92Zm-3.5-.08c-0.9-.18-1.41.49-1.9,1.47h0a8.74,8.74,0,0,0,.4-1.4,12.92,12.92,0,0,0-1.9.08l-0.14.74c0.26,0,.56.06,0.78,0.09v0l-0.7,3.66H86.4l0.19-1c0.28-1.47,1.06-2.84,1.9-2.53Zm-4.61,3.87c-0.26,0-.55-0.06-0.77-0.09l0.71-3.7a13.48,13.48,0,0,0-2,.08L82,60.16a7.54,7.54,0,0,1,.77.09L82,64a13.81,13.81,0,0,0,2-.08ZM84.46,58a0.67,0.67,0,0,0-.68-0.65,0.78,0.78,0,0,0-.79.77,0.67,0.67,0,0,0,.68.66A0.78,0.78,0,0,0,84.46,58m-2.38-.27H79.78l-0.15.75c0.18,0,.42.08,0.6,0.1L79.1,61.19c-0.16.39-.3,0.77-0.44,1.2h0a10.52,10.52,0,0,0,0-1.22l-0.3-3.47H77.09l-1.6,3.49A11.71,11.71,0,0,0,75,62.42h0a11.34,11.34,0,0,0,0-1.26l-0.14-2.61c0.23,0,.48-0.07.68-0.1l0.14-.75H73.38l-0.15.76a2.43,2.43,0,0,0,.46.08L74,63.95h1.38l1.55-3.47a10.37,10.37,0,0,0,.46-1.26h0a10,10,0,0,0,0,1.29l0.24,3.44h1.44l2.37-5.4a2.75,2.75,0,0,0,.49-0.08ZM70,59.27a1.5,1.5,0,0,0-1.67,1.17h0a7.11,7.11,0,0,0,.09-1.09,10.08,10.08,0,0,0-1.61.06V59.9c0.27,0,.58.06,0.8,0.09v3.33a4.25,4.25,0,0,0-.8.13v0.49h2.44V63.46a4.25,4.25,0,0,0-.8-0.13V62.1c0-1.47.47-2.18,1.53-2ZM65.21,61H63.06a1.16,1.16,0,0,1,1.12-1.13,1,1,0,0,1,1,1.13m0.85,0.19a1.74,1.74,0,0,0-1.84-1.93,2.12,2.12,0,0,0-2.05,2.4c0,1.62.76,2.36,2.17,2.36a4.09,4.09,0,0,0,1.55-.29l-0.07-.67a3.26,3.26,0,0,1-1.34.29c-1,0-1.49-.53-1.45-1.76h3a3.34,3.34,0,0,0,0-.4m-6.17.37c0,0.81-.43,1.78-1.26,1.78s-1-.56-1-1.55c0-1.32.58-1.85,1.46-1.85a3.17,3.17,0,0,1,.81.1v1.53Zm1.61,2.31V63.39c-0.25,0-.55-0.06-0.78-0.09V57.19a10.43,10.43,0,0,0-1.64.07v0.49c0.27,0,.58.06,0.81,0.09v1.49a7.6,7.6,0,0,0-.78,0,2.3,2.3,0,0,0-2.38,2.58c0,1.34.56,2.16,1.69,2.16A1.63,1.63,0,0,0,60,63h0a5.4,5.4,0,0,0-.07.93,9.83,9.83,0,0,0,1.58-.06" fill="#f39200"/><path d="M122.86,50.21h-2.15a1.16,1.16,0,0,1,1.12-1.13,1,1,0,0,1,1,1.13m0.85,0.19a1.74,1.74,0,0,0-1.84-1.93,2.12,2.12,0,0,0-2.05,2.4c0,1.62.76,2.36,2.17,2.36a4.07,4.07,0,0,0,1.55-.29l-0.07-.67a3.28,3.28,0,0,1-1.34.29c-1,0-1.49-.53-1.45-1.76h3a3.24,3.24,0,0,0,0-.4m-5.28,2.13V46.4a10.35,10.35,0,0,0-1.63.06V47c0.27,0,.58.06,0.8,0.09v5.49a4.45,4.45,0,0,0-.8.13v0.49h2.41V52.66a4.09,4.09,0,0,0-.79-0.13m-2.1.55V52.59c-0.26,0-.57-0.06-0.79-0.09V48.56a9.43,9.43,0,0,0-1.56.06v0.5c0.25,0,.53,0,0.74.08v1.56a1.56,1.56,0,0,1-1.31,1.78c-0.6,0-.78-0.38-0.78-1v-3a9.78,9.78,0,0,0-1.61.06v0.49c0.25,0,.56.06,0.78,0.09v2.57a1.27,1.27,0,0,0,1.38,1.47,1.68,1.68,0,0,0,1.62-1.06h0a6.62,6.62,0,0,0-.07,1,9.7,9.7,0,0,0,1.58-.06m-5.5.06V52.66a4,4,0,0,0-.78-0.13v-2.6a1.27,1.27,0,0,0-1.38-1.47,1.66,1.66,0,0,0-1.6,1h0a4.61,4.61,0,0,0,.07-0.92V46.4a10.35,10.35,0,0,0-1.63.06V47c0.27,0,.58.06,0.8,0.09v5.49a4.42,4.42,0,0,0-.8.13v0.49h2.38v-0.5a4.83,4.83,0,0,0-.75-0.12V50.94a1.56,1.56,0,0,1,1.31-1.79c0.6,0,.79.38,0.79,1v3h1.6ZM104.91,53l-0.05-.72a2.63,2.63,0,0,1-1.13.25c-1.08,0-1.39-.7-1.39-1.64s0.47-1.71,1.33-1.71a1.84,1.84,0,0,1,.57.08c0,0.22.07,0.48,0.12,0.75h0.52V48.64a3.92,3.92,0,0,0-1.1-.16A2.21,2.21,0,0,0,101.48,51a1.91,1.91,0,0,0,2.08,2.21,4,4,0,0,0,1.36-.24m-4.37-1.23c0-1.53-2.3-1-2.3-2a0.75,0.75,0,0,1,.93-0.68,3.25,3.25,0,0,1,.52,0,4.79,4.79,0,0,0,.11.73h0.51V48.6a4.84,4.84,0,0,0-1.06-.13c-1.2,0-1.85.59-1.85,1.38,0,1.6,2.31,1,2.31,2a0.87,0.87,0,0,1-1,.72,3.39,3.39,0,0,1-.55,0c0-.24-0.06-0.51-0.11-0.73H97.51v1.3a4.48,4.48,0,0,0,1.08.12c1.22,0,2-.66,2-1.49m-3.86,1.41V52.66a4,4,0,0,0-.78-0.13v-2.6a1.27,1.27,0,0,0-1.38-1.47,1.67,1.67,0,0,0-1.6,1h0A4.68,4.68,0,0,0,93,48.57V46.4a10.35,10.35,0,0,0-1.63.06V47c0.27,0,.58.06,0.8,0.09v5.49a4.42,4.42,0,0,0-.8.13v0.49h2.38v-0.5A4.84,4.84,0,0,0,93,52.53V50.94a1.56,1.56,0,0,1,1.31-1.79c0.6,0,.79.38,0.79,1v3h1.6ZM90.77,53l-0.05-.72a2.63,2.63,0,0,1-1.13.25c-1.08,0-1.39-.7-1.39-1.64s0.47-1.71,1.33-1.71a1.84,1.84,0,0,1,.57.08c0,0.22.06,0.48,0.12,0.75h0.52V48.64a3.92,3.92,0,0,0-1.1-.16A2.21,2.21,0,0,0,87.33,51a1.91,1.91,0,0,0,2.08,2.21A4,4,0,0,0,90.77,53m-5.15-2.16c0,1.17-.59,1.71-1.28,1.71-0.84,0-1.29-.61-1.29-1.72a1.4,1.4,0,0,1,1.29-1.65c0.85,0,1.28.61,1.28,1.66m0.87,0c0-1.66-.9-2.3-2.07-2.3a2.24,2.24,0,0,0-2.24,2.42c0,1.62.81,2.34,2.06,2.34a2.27,2.27,0,0,0,2.25-2.46m-4.95,2.38V52.66a4,4,0,0,0-.78-0.13v-2.6a1.27,1.27,0,0,0-1.38-1.47,1.66,1.66,0,0,0-1.6,1h0a4.77,4.77,0,0,0,.07-0.92V46.4a10.36,10.36,0,0,0-1.63.06V47C76.48,47,76.8,47,77,47v5.49a4.45,4.45,0,0,0-.81.13v0.49h2.38v-0.5a4.81,4.81,0,0,0-.75-0.12V50.94a1.56,1.56,0,0,1,1.31-1.79c0.6,0,.79.38,0.79,1v3h1.6Zm-5.8,0V52.66A4,4,0,0,0,75,52.53v-2.6a1.27,1.27,0,0,0-1.38-1.47,1.67,1.67,0,0,0-1.6,1h0A4.69,4.69,0,0,0,72,48.57V46.4a10.36,10.36,0,0,0-1.63.06V47C70.68,47,71,47,71.22,47v5.49a4.44,4.44,0,0,0-.81.13v0.49h2.38v-0.5A4.85,4.85,0,0,0,72,52.53V50.94a1.56,1.56,0,0,1,1.31-1.79c0.6,0,.79.38,0.79,1v3h1.6ZM69.82,53l-0.05-.72a2.63,2.63,0,0,1-1.13.25c-1.08,0-1.39-.7-1.39-1.64s0.47-1.71,1.33-1.71a1.84,1.84,0,0,1,.57.08c0,0.22.07,0.48,0.12,0.75h0.52V48.64a3.91,3.91,0,0,0-1.1-.16A2.21,2.21,0,0,0,66.38,51a1.91,1.91,0,0,0,2.08,2.21A4,4,0,0,0,69.82,53m-5.71-1.85a1.38,1.38,0,0,1-1.25,1.46,0.63,0.63,0,0,1-.7-0.64c0-.45.43-0.91,2-0.91v0.08Zm1.61,2V52.59c-0.25,0-.55-0.06-0.78-0.09V50c0-.92-0.38-1.54-1.71-1.54a4.7,4.7,0,0,0-1.57.25V50h0.51c0-.26.09-0.52,0.11-0.75a3.26,3.26,0,0,1,.85-0.11,0.84,0.84,0,0,1,1,1v0.35c-1.74,0-2.77.63-2.77,1.64a1.12,1.12,0,0,0,1.28,1.14,1.64,1.64,0,0,0,1.56-1h0a5.64,5.64,0,0,0,0,.92,9.46,9.46,0,0,0,1.56-.06m-5.06-4.73V46.9h-4v0.49a4.25,4.25,0,0,0,.8.13v5a4.41,4.41,0,0,0-.8.13v0.49h2.45V52.66a4.41,4.41,0,0,0-.81-0.13V50.33h1.37c0,0.22.08,0.44,0.13,0.63h0.52V49H59.76c0,0.19-.09.41-0.13,0.63H58.26v-2.1h1.68c0,0.25.07,0.5,0.13,0.78h0.59Z" fill="#f39200"/></g><polygon points="53.19 45.87 53.19 65.71 55.02 65.71 55.02 65.05 53.97 65.05 53.97 46.5 55.02 46.5 55.02 45.87 53.19 45.87" fill="#f39200"/><polygon points="125.2 45.87 125.2 46.5 126.25 46.5 126.25 65.05 125.2 65.05 125.2 65.71 127.03 65.71 127.03 45.87 125.2 45.87" fill="#f39200"/><polygon points="3.59 5.96 3.59 41.39 14.51 41.39 14.51 27.89 29.1 27.89 29.1 19.46 14.51 19.46 14.51 15.04 29.1 15.04 29.1 5.96 3.59 5.96" fill="#21376a"/><polygon points="31.93 5.96 31.93 41.39 42.85 41.39 42.85 27.89 61.15 27.89 61.15 19.46 42.85 19.46 42.85 5.96 31.93 5.96" fill="#21376a"/><rect x="85.15" y="5.96" width="10.66" height="35.43" fill="#21376a"/><polygon points="106.74 5.96 85.6 41.39 95.81 41.39 109.12 19.09 116.95 5.96 106.74 5.96" fill="#21376a"/><polygon points="127.89 5.96 106.74 41.39 116.95 41.39 138.09 5.96 127.89 5.96" fill="#21376a"/><polygon points="106.99 5.96 106.3 21.18 106.3 41.39 116.95 41.39 116.95 5.96 106.99 5.96" fill="#21376a"/><g clip-path="url(#4d4427f1-f6e6-4ea6-858f-4beb665d4bff)"><path d="M64.11,15h3.47c7.89,0,8.59,6.2,8.59,8.44,0,3.32-1,8.83-7.79,8.83H64.11V15ZM53.19,41.39H69c12.36,0,17.76-6.9,17.76-17.77C86.73,14.69,82.92,6,71.11,6H53.19V41.39Z" fill="#21376a"/></g></svg>